<svg width="18" height="18" viewBox="0 0 18 18" fill="none" xmlns="http://www.w3.org/2000/svg">
<g id="Group 20">
<path id="&#209;&#150;" d="M8.948 6.908C8.692 6.908 8.468 6.816 8.276 6.632C8.092 6.44 8 6.216 8 5.96C8 5.704 8.092 5.48 8.276 5.288C8.468 5.096 8.692 5 8.948 5C9.212 5 9.436 5.096 9.62 5.288C9.812 5.48 9.908 5.704 9.908 5.96C9.908 6.216 9.812 6.44 9.62 6.632C9.436 6.816 9.212 6.908 8.948 6.908ZM9.728 13.628H8.18V7.628H9.728V13.628Z" fill="#989898"/>
<circle id="Ellipse 3" cx="9" cy="9" r="8.5" stroke="#989898"/>
</g>
</svg>
